<?xml version="1.0" encoding="utf-8"?>
<!-- Generator: Adobe Illustrator 27.3.1, SVG Export Plug-In . SVG Version: 6.00 Build 0)  -->
<svg version="1.1" id="Camada_1" xmlns="http://www.w3.org/2000/svg" xmlns:xlink="http://www.w3.org/1999/xlink" x="0px" y="0px"
	 viewBox="0 0 1500 1500" style="enable-background:new 0 0 1500 1500;" xml:space="preserve">
<style type="text/css">
	.st0{enable-background:new    ;}
	.st1{fill:#FFFFFF;}
</style>
<g class="st0">
	<path class="st1" d="M149.3,890.3h72.6v30.6h190.8v-12c-11.4-0.6-22.2-3.6-32.4-7.2l-133.8-37.8c-71.4-21-109.8-85.2-109.8-151.2
		c0-88.2,70.8-157.8,163.8-157.8h166.8v51.6h-34.8c-7.2,0-10.8-1.2-17.4-2.4h-3c30,26.4,49.2,64.8,49.2,108.6
		c0,63-38.4,114.6-88.8,129v3.6c14.4,0,25.8,1.2,36.6,4.2l60,16.8v116.4H149.3V890.3z M386.3,712.7c0-49.2-36.6-86.4-85.8-87
		c-53.4,0.6-88.2,37.2-88.2,87s36.6,87,86.4,87C349.1,799.7,386.3,762.5,386.3,712.7z"/>
</g>
<g class="st0">
	<path class="st1" d="M509.3,554.9h199.8v70.2H584.9v261.6h-75.6V554.9z"/>
</g>
<g class="st0">
	<path class="st1" d="M744.5,744.5V554.9h74.9v185.3c0,64.5,34.6,84.8,69.7,84.8c35.1,0,69.7-20.4,69.7-84.8V554.9h74.9v189.6
		c0,107.6-60,150.3-144.6,150.3C804.9,894.7,744.5,852.1,744.5,744.5z M809.9,453.2h59.7v56.9h-59.7V453.2z M907.5,453.2h59.7v56.9
		h-59.7V453.2z"/>
</g>
<g class="st0">
	<path class="st1" d="M1064.4,554.3h79.2l81.6,226.2l82.2-225.6h79.2l-121.2,331.8H1185L1064.4,554.3z"/>
</g>
</svg>
